<svg xmlns="http://www.w3.org/2000/svg" width="128" height="128" shape-rendering="crispEdges">
  <rect x="32" y="0" width="64" height="8" fill="#0f380f"/>
  <rect x="24" y="8" width="8" height="8" fill="#0f380f"/>
  <rect x="32" y="8" width="16" height="8" fill="#306230"/>
  <rect x="48" y="8" width="16" height="8" fill="#8bac0f"/>
  <rect x="64" y="8" width="24" height="8" fill="#306230"/>
  <rect x="88" y="8" width="8" height="8" fill="#8bac0f"/>
  <rect x="96" y="8" width="8" height="8" fill="#0f380f"/>
  <rect x="16" y="16" width="8" height="8" fill="#0f380f"/>
  <rect x="24" y="16" width="16" height="8" fill="#306230"/>
  <rect x="40" y="16" width="40" height="8" fill="#8bac0f"/>
  <rect x="80" y="16" width="24" height="8" fill="#306230"/>
  <rect x="104" y="16" width="8" height="8" fill="#0f380f"/>
  <rect x="16" y="24" width="8" height="8" fill="#0f380f"/>
  <rect x="24" y="24" width="8" height="8" fill="#306230"/>
  <rect x="32" y="24" width="16" height="8" fill="#8bac0f"/>
  <rect x="48" y="24" width="32" height="8" fill="#9bbc0f"/>
  <rect x="80" y="24" width="16" height="8" fill="#8bac0f"/>
  <rect x="96" y="24" width="8" height="8" fill="#306230"/>
  <rect x="104" y="24" width="8" height="8" fill="#0f380f"/>
  <rect x="16" y="32" width="8" height="8" fill="#0f380f"/>
  <rect x="24" y="32" width="8" height="8" fill="#306230"/>
  <rect x="32" y="32" width="16" height="8" fill="#8bac0f"/>
  <rect x="48" y="32" width="8" height="8" fill="#9bbc0f"/>
  <rect x="56" y="32" width="16" height="8" fill="#8bac0f"/>
  <rect x="72" y="32" width="8" height="8" fill="#9bbc0f"/>
  <rect x="80" y="32" width="16" height="8" fill="#8bac0f"/>
  <rect x="96" y="32" width="8" height="8" fill="#306230"/>
  <rect x="104" y="32" width="8" height="8" fill="#0f380f"/>
  <rect x="16" y="40" width="8" height="8" fill="#0f380f"/>
  <rect x="24" y="40" width="8" height="8" fill="#306230"/>
  <rect x="32" y="40" width="16" height="8" fill="#8bac0f"/>
  <rect x="48" y="40" width="32" height="8" fill="#9bbc0f"/>
  <rect x="80" y="40" width="16" height="8" fill="#8bac0f"/>
  <rect x="96" y="40" width="8" height="8" fill="#306230"/>
  <rect x="104" y="40" width="8" height="8" fill="#0f380f"/>
  <rect x="16" y="48" width="8" height="8" fill="#0f380f"/>
  <rect x="24" y="48" width="16" height="8" fill="#306230"/>
  <rect x="40" y="48" width="24" height="8" fill="#8bac0f"/>
  <rect x="64" y="48" width="8" height="8" fill="#9bbc0f"/>
  <rect x="72" y="48" width="16" height="8" fill="#8bac0f"/>
  <rect x="88" y="48" width="16" height="8" fill="#306230"/>
  <rect x="104" y="48" width="8" height="8" fill="#0f380f"/>
  <rect x="24" y="56" width="8" height="8" fill="#0f380f"/>
  <rect x="32" y="56" width="16" height="8" fill="#306230"/>
  <rect x="48" y="56" width="16" height="8" fill="#8bac0f"/>
  <rect x="64" y="56" width="24" height="8" fill="#306230"/>
  <rect x="88" y="56" width="8" height="8" fill="#8bac0f"/>
  <rect x="96" y="56" width="8" height="8" fill="#0f380f"/>
  <rect x="32" y="64" width="8" height="8" fill="#0f380f"/>
  <rect x="40" y="64" width="48" height="8" fill="#306230"/>
  <rect x="88" y="64" width="8" height="8" fill="#0f380f"/>
  <rect x="24" y="72" width="8" height="8" fill="#0f380f"/>
  <rect x="32" y="72" width="16" height="8" fill="#306230"/>
  <rect x="48" y="72" width="32" height="8" fill="#8bac0f"/>
  <rect x="80" y="72" width="16" height="8" fill="#306230"/>
  <rect x="96" y="72" width="8" height="8" fill="#0f380f"/>
  <rect x="16" y="80" width="8" height="8" fill="#0f380f"/>
  <rect x="24" y="80" width="16" height="8" fill="#306230"/>
  <rect x="40" y="80" width="8" height="8" fill="#8bac0f"/>
  <rect x="48" y="80" width="24" height="8" fill="#0f380f"/>
  <rect x="72" y="80" width="8" height="8" fill="#8bac0f"/>
  <rect x="80" y="80" width="24" height="8" fill="#306230"/>
  <rect x="104" y="80" width="8" height="8" fill="#0f380f"/>
  <rect x="16" y="88" width="8" height="8" fill="#0f380f"/>
  <rect x="24" y="88" width="8" height="8" fill="#306230"/>
  <rect x="32" y="88" width="16" height="8" fill="#8bac0f"/>
  <rect x="48" y="88" width="24" height="8" fill="#0f380f"/>
  <rect x="72" y="88" width="16" height="8" fill="#8bac0f"/>
  <rect x="88" y="88" width="16" height="8" fill="#306230"/>
  <rect x="104" y="88" width="8" height="8" fill="#0f380f"/>
  <rect x="16" y="96" width="8" height="8" fill="#0f380f"/>
  <rect x="24" y="96" width="8" height="8" fill="#306230"/>
  <rect x="32" y="96" width="64" height="8" fill="#8bac0f"/>
  <rect x="96" y="96" width="8" height="8" fill="#306230"/>
  <rect x="104" y="96" width="8" height="8" fill="#0f380f"/>
  <rect x="24" y="104" width="8" height="8" fill="#0f380f"/>
  <rect x="32" y="104" width="8" height="8" fill="#306230"/>
  <rect x="40" y="104" width="48" height="8" fill="#8bac0f"/>
  <rect x="88" y="104" width="8" height="8" fill="#306230"/>
  <rect x="96" y="104" width="8" height="8" fill="#0f380f"/>
  <rect x="24" y="112" width="8" height="8" fill="#0f380f"/>
  <rect x="32" y="112" width="16" height="8" fill="#306230"/>
  <rect x="48" y="112" width="24" height="8" fill="#0f380f"/>
  <rect x="72" y="112" width="16" height="8" fill="#306230"/>
  <rect x="88" y="112" width="16" height="8" fill="#0f380f"/>
  <rect x="16" y="120" width="8" height="8" fill="#0f380f"/>
  <rect x="24" y="120" width="16" height="8" fill="#306230"/>
  <rect x="40" y="120" width="40" height="8" fill="#0f380f"/>
  <rect x="80" y="120" width="16" height="8" fill="#306230"/>
  <rect x="96" y="120" width="16" height="8" fill="#0f380f"/>
</svg>