<svg xmlns="http://www.w3.org/2000/svg" width="64" height="80" shape-rendering="crispEdges">
  <rect x="16" y="0" width="8" height="8" fill="#1a1c2c"/>
  <rect x="24" y="0" width="8" height="8" fill="#5d275d"/>
  <rect x="32" y="0" width="8" height="8" fill="#1a1c2c"/>
  <rect x="8" y="8" width="8" height="8" fill="#1a1c2c"/>
  <rect x="16" y="8" width="24" height="8" fill="#5d275d"/>
  <rect x="40" y="8" width="8" height="8" fill="#1a1c2c"/>
  <rect x="8" y="16" width="8" height="8" fill="#1a1c2c"/>
  <rect x="16" y="16" width="24" height="8" fill="#f4cca1"/>
  <rect x="40" y="16" width="16" height="8" fill="#1a1c2c"/>
  <rect x="16" y="24" width="8" height="8" fill="#1a1c2c"/>
  <rect x="24" y="24" width="16" height="8" fill="#f4cca1"/>
  <rect x="40" y="24" width="8" height="8" fill="#1a1c2c"/>
  <rect x="8" y="32" width="8" height="8" fill="#1a1c2c"/>
  <rect x="16" y="32" width="32" height="8" fill="#3b5dc9"/>
  <rect x="48" y="32" width="8" height="8" fill="#1a1c2c"/>
  <rect x="8" y="40" width="8" height="8" fill="#1a1c2c"/>
  <rect x="16" y="40" width="8" height="8" fill="#3b5dc9"/>
  <rect x="24" y="40" width="8" height="8" fill="#b13e53"/>
  <rect x="32" y="40" width="8" height="8" fill="#3b5dc9"/>
  <rect x="40" y="40" width="16" height="8" fill="#1a1c2c"/>
  <rect x="8" y="48" width="8" height="8" fill="#1a1c2c"/>
  <rect x="16" y="48" width="32" height="8" fill="#3b5dc9"/>
  <rect x="48" y="48" width="8" height="8" fill="#1a1c2c"/>
  <rect x="16" y="56" width="8" height="8" fill="#1a1c2c"/>
  <rect x="24" y="56" width="16" height="8" fill="#3b5dc9"/>
  <rect x="40" y="56" width="8" height="8" fill="#1a1c2c"/>
  <rect x="16" y="64" width="8" height="8" fill="#1a1c2c"/>
  <rect x="40" y="64" width="8" height="8" fill="#1a1c2c"/>
  <rect x="8" y="72" width="16" height="8" fill="#1a1c2c"/>
  <rect x="40" y="72" width="16" height="8" fill="#1a1c2c"/>
</svg>